<svg xmlns="http://www.w3.org/2000/svg" xmlns:xlink="http://www.w3.org/1999/xlink" width="500" zoomAndPan="magnify" viewBox="0 0 375 374.999991" height="500" preserveAspectRatio="xMidYMid meet" version="1.0"><defs><g/></defs><g fill="#f0ead6" fill-opacity="1"><g transform="translate(120.954122, 100.193468)"><g><path d="M 31.03125 0 L 24.46875 -12.421875 L 15.640625 -12.421875 L 15.640625 0 L 4.421875 0 L 4.421875 -44.140625 L 24.15625 -44.140625 C 30 -44.140625 34.515625 -42.804688 37.703125 -40.140625 C 40.898438 -37.472656 42.5 -33.675781 42.5 -28.75 C 42.5 -21.945312 39.832031 -17.21875 34.5 -14.5625 L 43.765625 0 Z M 15.640625 -21.25 L 24.15625 -21.25 C 26.59375 -21.25 28.484375 -21.859375 29.828125 -23.078125 C 31.171875 -24.296875 31.84375 -26.0625 31.84375 -28.375 C 31.84375 -30.644531 31.171875 -32.367188 29.828125 -33.546875 C 28.484375 -34.722656 26.59375 -35.3125 24.15625 -35.3125 L 15.640625 -35.3125 Z M 15.640625 -21.25 "/></g></g></g><g fill="#f0ead6" fill-opacity="1"><g transform="translate(180.230611, 100.193468)"><g><path d="M 27.1875 -14.25 L 27.1875 0 L 16.015625 0 L 16.015625 -13.9375 L -0.3125 -44.140625 L 10.90625 -44.140625 L 21.5625 -24.90625 L 31.96875 -44.140625 L 43.203125 -44.140625 Z M 27.1875 -14.25 "/></g></g></g><g fill="#f0ead6" fill-opacity="1"><g transform="translate(236.732526, 100.193468)"><g><path d="M 33.734375 -8.140625 L 14.4375 -8.140625 L 11.21875 0 L -0.3125 0 L 18.734375 -44.140625 L 30.265625 -44.140625 L 48.875 0 L 36.890625 0 Z M 30.453125 -16.65625 L 24.15625 -32.984375 L 17.71875 -16.65625 Z M 30.453125 -16.65625 "/></g></g></g><g fill="#f0ead6" fill-opacity="1"><g transform="translate(298.909703, 100.193468)"><g><path d="M 45.15625 0 L 35.25 0 L 14.953125 -27.1875 L 14.953125 0 L 4.421875 0 L 4.421875 -44.140625 L 14.3125 -44.140625 L 34.6875 -16.90625 L 34.6875 -44.140625 L 45.15625 -44.140625 Z M 45.15625 0 "/></g></g></g><g fill="#f0ead6" fill-opacity="1"><g transform="translate(30.016628, 187.943462)"><g><path d="M 33.734375 -22.453125 L 43.453125 -22.453125 L 43.453125 -5.234375 C 41.054688 -3.554688 38.164062 -2.179688 34.78125 -1.109375 C 31.394531 -0.0351562 28.164062 0.5 25.09375 0.5 C 18.375 0.5 12.765625 -1.648438 8.265625 -5.953125 C 3.765625 -10.265625 1.515625 -15.640625 1.515625 -22.078125 C 1.515625 -28.460938 3.828125 -33.796875 8.453125 -38.078125 C 13.078125 -42.367188 18.878906 -44.515625 25.859375 -44.515625 C 29.140625 -44.515625 32.394531 -43.925781 35.625 -42.75 C 38.863281 -41.570312 41.617188 -39.976562 43.890625 -37.96875 L 37.578125 -30.328125 C 35.984375 -31.804688 34.132812 -32.972656 32.03125 -33.828125 C 29.925781 -34.691406 27.847656 -35.125 25.796875 -35.125 C 22.179688 -35.125 19.140625 -33.875 16.671875 -31.375 C 14.210938 -28.875 12.984375 -25.773438 12.984375 -22.078125 C 12.984375 -18.328125 14.222656 -15.191406 16.703125 -12.671875 C 19.191406 -10.148438 22.265625 -8.890625 25.921875 -8.890625 C 28.273438 -8.890625 30.878906 -9.601562 33.734375 -11.03125 Z M 33.734375 -22.453125 "/></g></g></g><g fill="#f0ead6" fill-opacity="1"><g transform="translate(90.491221, 187.943462)"><g><path d="M 25.34375 -44.515625 C 32.195312 -44.515625 37.894531 -42.378906 42.4375 -38.109375 C 46.976562 -33.847656 49.25 -28.523438 49.25 -22.140625 C 49.25 -15.703125 46.96875 -10.316406 42.40625 -5.984375 C 37.84375 -1.660156 32.15625 0.5 25.34375 0.5 C 18.539062 0.5 12.867188 -1.648438 8.328125 -5.953125 C 3.785156 -10.265625 1.515625 -15.660156 1.515625 -22.140625 C 1.515625 -28.566406 3.785156 -33.898438 8.328125 -38.140625 C 12.867188 -42.390625 18.539062 -44.515625 25.34375 -44.515625 Z M 25.484375 -35.125 C 22.035156 -35.125 19.085938 -33.875 16.640625 -31.375 C 14.203125 -28.875 12.984375 -25.769531 12.984375 -22.0625 C 12.984375 -18.363281 14.210938 -15.242188 16.671875 -12.703125 C 19.140625 -10.160156 22.070312 -8.890625 25.46875 -8.890625 C 28.875 -8.890625 31.765625 -10.160156 34.140625 -12.703125 C 36.523438 -15.242188 37.71875 -18.363281 37.71875 -22.0625 C 37.71875 -25.769531 36.523438 -28.875 34.140625 -31.375 C 31.765625 -33.875 28.878906 -35.125 25.484375 -35.125 Z M 25.484375 -35.125 "/></g></g></g><g fill="#f0ead6" fill-opacity="1"><g transform="translate(154.875449, 187.943462)"><g><path d="M 21.375 -44.640625 C 27.976562 -44.640625 33.78125 -43.003906 38.78125 -39.734375 L 34.5625 -30.96875 C 32.25 -32.3125 29.765625 -33.410156 27.109375 -34.265625 C 24.460938 -35.128906 22.238281 -35.5625 20.4375 -35.5625 C 17.195312 -35.5625 15.578125 -34.488281 15.578125 -32.34375 C 15.578125 -30.957031 16.375 -29.84375 17.96875 -29 C 19.570312 -28.164062 21.519531 -27.441406 23.8125 -26.828125 C 26.101562 -26.222656 28.390625 -25.488281 30.671875 -24.625 C 32.960938 -23.757812 34.90625 -22.359375 36.5 -20.421875 C 38.101562 -18.492188 38.90625 -16.054688 38.90625 -13.109375 C 38.90625 -8.867188 37.242188 -5.5625 33.921875 -3.1875 C 30.609375 -0.8125 26.382812 0.375 21.25 0.375 C 17.59375 0.375 13.976562 -0.253906 10.40625 -1.515625 C 6.832031 -2.773438 3.722656 -4.5 1.078125 -6.6875 L 5.421875 -15.328125 C 7.648438 -13.390625 10.273438 -11.800781 13.296875 -10.5625 C 16.328125 -9.320312 19.019531 -8.703125 21.375 -8.703125 C 23.1875 -8.703125 24.59375 -9.023438 25.59375 -9.671875 C 26.601562 -10.328125 27.109375 -11.285156 27.109375 -12.546875 C 27.109375 -13.765625 26.53125 -14.785156 25.375 -15.609375 C 24.21875 -16.429688 22.78125 -17.039062 21.0625 -17.4375 C 19.34375 -17.832031 17.472656 -18.363281 15.453125 -19.03125 C 13.429688 -19.707031 11.554688 -20.445312 9.828125 -21.25 C 8.109375 -22.050781 6.671875 -23.320312 5.515625 -25.0625 C 4.359375 -26.8125 3.78125 -28.90625 3.78125 -31.34375 C 3.78125 -35.375 5.390625 -38.597656 8.609375 -41.015625 C 11.828125 -43.429688 16.082031 -44.640625 21.375 -44.640625 Z M 21.375 -44.640625 "/></g></g></g><g fill="#f0ead6" fill-opacity="1"><g transform="translate(209.107257, 187.943462)"><g><path d="M 15.640625 0 L 4.421875 0 L 4.421875 -44.140625 L 15.640625 -44.140625 Z M 15.640625 0 "/></g></g></g><g fill="#f0ead6" fill-opacity="1"><g transform="translate(242.781963, 187.943462)"><g><path d="M 45.15625 0 L 35.25 0 L 14.953125 -27.1875 L 14.953125 0 L 4.421875 0 L 4.421875 -44.140625 L 14.3125 -44.140625 L 34.6875 -16.90625 L 34.6875 -44.140625 L 45.15625 -44.140625 Z M 45.15625 0 "/></g></g></g><g fill="#f0ead6" fill-opacity="1"><g transform="translate(305.968086, 187.943462)"><g><path d="M 38.96875 -35.3125 L 15.640625 -35.3125 L 15.640625 -26.546875 L 36.703125 -26.546875 L 36.703125 -17.71875 L 15.640625 -17.71875 L 15.640625 -8.828125 L 39.671875 -8.828125 L 39.671875 0 L 4.421875 0 L 4.421875 -44.140625 L 38.96875 -44.140625 Z M 38.96875 -35.3125 "/></g></g></g></svg>