<svg xmlns="http://www.w3.org/2000/svg" xmlns:xlink="http://www.w3.org/1999/xlink" width="500" zoomAndPan="magnify" viewBox="0 0 375 374.999991" height="500" preserveAspectRatio="xMidYMid meet" version="1.0"><defs><g/></defs><g fill="#90ee90" fill-opacity="1"><g transform="translate(157.361102, 127.851287)"><g><path d="M 0 0 L 0 -12.78125 L 1.1875 -12.78125 L 3.546875 -8.046875 L 5.921875 -12.78125 L 7.109375 -12.78125 L 7.109375 0 L 5.6875 0 L 5.6875 -9.46875 L 4.03125 -6.15625 L 3.078125 -6.15625 L 1.421875 -9.46875 L 1.421875 0 Z M 0 0 "/></g></g></g><g fill="#90ee90" fill-opacity="1"><g transform="translate(173.37376, 127.851287)"><g><path d="M 5.6875 -5.6875 L 5.6875 -6.625 L 3.546875 -10.890625 L 1.421875 -6.625 L 1.421875 -5.6875 Z M 0 0 L 0 -6.625 L 3.078125 -12.78125 L 4.03125 -12.78125 L 7.109375 -6.625 L 7.109375 0 L 5.6875 0 L 5.6875 -4.265625 L 1.421875 -4.265625 L 1.421875 0 Z M 0 0 "/></g></g></g><g fill="#90ee90" fill-opacity="1"><g transform="translate(189.386417, 127.851287)"><g><path d="M 0 0 L 0 -12.78125 L 1.421875 -12.78125 L 1.421875 -7.109375 L 3.078125 -7.109375 L 5.921875 -12.78125 L 6.15625 -12.78125 L 7.109375 -12.3125 L 4.140625 -6.390625 L 7.109375 -0.46875 L 6.15625 0 L 5.921875 0 L 3.078125 -5.6875 L 1.421875 -5.6875 L 1.421875 0 Z M 0 0 "/></g></g></g><g fill="#90ee90" fill-opacity="1"><g transform="translate(205.399074, 127.851287)"><g><path d="M 0 0 L 0 -12.78125 L 7.109375 -12.78125 L 7.109375 -11.375 L 1.421875 -11.375 L 1.421875 -7.109375 L 5.6875 -7.109375 L 5.6875 -5.6875 L 1.421875 -5.6875 L 1.421875 -1.421875 L 7.109375 -1.421875 L 7.109375 0 Z M 0 0 "/></g></g></g><g fill="#90ee90" fill-opacity="1"><g transform="translate(221.411732, 127.851287)"><g><path d="M 2.375 0 L 0 -2.375 L 0.953125 -3.3125 L 2.84375 -1.421875 L 4.265625 -1.421875 L 5.6875 -2.84375 L 5.6875 -4.265625 L 4.265625 -5.6875 L 2.375 -5.6875 L 0 -8.046875 L 0 -10.421875 L 2.375 -12.78125 L 4.734375 -12.78125 L 7.109375 -10.421875 L 6.15625 -9.46875 L 4.265625 -11.375 L 2.84375 -11.375 L 1.421875 -9.953125 L 1.421875 -8.53125 L 2.84375 -7.109375 L 4.734375 -7.109375 L 7.109375 -4.734375 L 7.109375 -2.375 L 4.734375 0 Z M 2.375 0 "/></g></g></g><g fill="#90ee90" fill-opacity="1"><g transform="translate(237.424392, 127.851287)"><g/></g></g><g fill="#90ee90" fill-opacity="1"><g transform="translate(253.437053, 127.851287)"><g><path d="M 0 0 L 0 -12.78125 L 1.421875 -12.78125 L 1.421875 -3.3125 L 3.078125 -6.625 L 4.03125 -6.625 L 5.6875 -3.3125 L 5.6875 -12.78125 L 7.109375 -12.78125 L 7.109375 0 L 5.921875 0 L 3.546875 -4.734375 L 1.1875 0 Z M 0 0 "/></g></g></g><g fill="#90ee90" fill-opacity="1"><g transform="translate(269.449713, 127.851287)"><g><path d="M 0 0 L 0 -12.78125 L 7.109375 -12.78125 L 7.109375 -11.375 L 1.421875 -11.375 L 1.421875 -7.109375 L 5.6875 -7.109375 L 5.6875 -5.6875 L 1.421875 -5.6875 L 1.421875 -1.421875 L 7.109375 -1.421875 L 7.109375 0 Z M 0 0 "/></g></g></g><g fill="#90ee90" fill-opacity="1"><g transform="translate(285.462374, 127.851287)"><g><path d="M 4.265625 -1.421875 L 5.6875 -2.84375 L 5.6875 -4.265625 L 4.265625 -5.6875 L 1.421875 -5.6875 L 1.421875 -1.421875 Z M 4.265625 -7.109375 L 5.6875 -8.53125 L 5.6875 -9.953125 L 4.265625 -11.375 L 1.421875 -11.375 L 1.421875 -7.109375 Z M 0 0 L 0 -12.78125 L 4.734375 -12.78125 L 7.109375 -10.421875 L 7.109375 -8.046875 L 5.6875 -6.625 L 5.65625 -6.625 L 5.453125 -6.390625 L 7.109375 -4.734375 L 7.109375 -2.375 L 4.734375 0 Z M 0 0 "/></g></g></g><g fill="#90ee90" fill-opacity="1"><g transform="translate(301.475035, 127.851287)"><g><path d="M 2.375 0 L 0 -2.375 L 0.953125 -3.3125 L 2.84375 -1.421875 L 4.265625 -1.421875 L 5.6875 -2.84375 L 5.6875 -4.265625 L 4.265625 -5.6875 L 2.375 -5.6875 L 0 -8.046875 L 0 -10.421875 L 2.375 -12.78125 L 4.734375 -12.78125 L 7.109375 -10.421875 L 6.15625 -9.46875 L 4.265625 -11.375 L 2.84375 -11.375 L 1.421875 -9.953125 L 1.421875 -8.53125 L 2.84375 -7.109375 L 4.734375 -7.109375 L 7.109375 -4.734375 L 7.109375 -2.375 L 4.734375 0 Z M 2.375 0 "/></g></g></g><g fill="#90ee90" fill-opacity="1"><g transform="translate(317.487695, 127.851287)"><g><path d="M 1.421875 0 L 1.421875 -1.421875 L 2.84375 -1.421875 L 2.84375 -11.375 L 1.421875 -11.375 L 1.421875 -12.78125 L 5.6875 -12.78125 L 5.6875 -11.375 L 4.265625 -11.375 L 4.265625 -1.421875 L 5.6875 -1.421875 L 5.6875 0 Z M 1.421875 0 "/></g></g></g><g fill="#90ee90" fill-opacity="1"><g transform="translate(333.500356, 127.851287)"><g><path d="M 2.84375 0 L 2.84375 -11.375 L 0 -11.375 L 0 -12.78125 L 7.109375 -12.78125 L 7.109375 -11.375 L 4.265625 -11.375 L 4.265625 0 Z M 2.84375 0 "/></g></g></g><g fill="#90ee90" fill-opacity="1"><g transform="translate(349.513017, 127.851287)"><g><path d="M 0 0 L 0 -12.78125 L 7.109375 -12.78125 L 7.109375 -11.375 L 1.421875 -11.375 L 1.421875 -7.109375 L 5.6875 -7.109375 L 5.6875 -5.6875 L 1.421875 -5.6875 L 1.421875 -1.421875 L 7.109375 -1.421875 L 7.109375 0 Z M 0 0 "/></g></g></g><g fill="#90ee90" fill-opacity="1"><g transform="translate(365.525677, 127.851287)"><g><path d="M 2.375 0 L 0 -2.375 L 0.953125 -3.3125 L 2.84375 -1.421875 L 4.265625 -1.421875 L 5.6875 -2.84375 L 5.6875 -4.265625 L 4.265625 -5.6875 L 2.375 -5.6875 L 0 -8.046875 L 0 -10.421875 L 2.375 -12.78125 L 4.734375 -12.78125 L 7.109375 -10.421875 L 6.15625 -9.46875 L 4.265625 -11.375 L 2.84375 -11.375 L 1.421875 -9.953125 L 1.421875 -8.53125 L 2.84375 -7.109375 L 4.734375 -7.109375 L 7.109375 -4.734375 L 7.109375 -2.375 L 4.734375 0 Z M 2.375 0 "/></g></g></g></svg>