<svg xmlns="http://www.w3.org/2000/svg" xmlns:xlink="http://www.w3.org/1999/xlink" width="300" zoomAndPan="magnify" viewBox="0 0 224.87999 112.499997" height="150" preserveAspectRatio="xMidYMid meet" version="1.0"><defs><g/><clipPath id="7be5c390f5"><path d="M 76.039062 47.222656 L 100.667969 47.222656 L 100.667969 90.976562 L 76.039062 90.976562 Z M 76.039062 47.222656 " clip-rule="nonzero"/></clipPath><clipPath id="3c373acef4"><path d="M 99.410156 47.410156 C 101.054688 67.746094 100.90625 71.335938 99.410156 74.777344 C 97.765625 78.367188 94.324219 82.105469 91.632812 84.648438 C 89.242188 86.742188 86.699219 88.238281 84.007812 89.285156 C 81.613281 90.332031 76.230469 91.226562 76.078125 90.777344 C 75.929688 90.179688 87.445312 86.292969 91.183594 83.152344 C 94.324219 80.609375 96.570312 77.917969 98.0625 74.027344 C 99.859375 69.242188 100.007812 61.019531 99.710938 56.082031 C 99.558594 52.792969 97.316406 48.457031 97.914062 47.558594 C 98.214844 47.109375 99.410156 47.410156 99.410156 47.410156 " clip-rule="nonzero"/></clipPath><clipPath id="80c46c8c54"><path d="M 69.273438 75.875 L 94.351562 75.875 L 94.351562 96.859375 L 69.273438 96.859375 Z M 69.273438 75.875 " clip-rule="nonzero"/></clipPath><clipPath id="5748e3ff03"><path d="M 78.773438 76.273438 C 75.03125 86.144531 69.796875 89.582031 70.546875 91.675781 C 71.890625 94.964844 94.324219 96.164062 94.324219 96.613281 C 94.324219 97.058594 81.464844 96.3125 76.976562 95.414062 C 73.835938 94.667969 70.246094 94.519531 69.5 92.574219 C 68.304688 89.433594 75.480469 76.871094 77.425781 75.972656 C 77.875 75.675781 78.773438 76.273438 78.773438 76.273438 " clip-rule="nonzero"/></clipPath></defs><g fill="#000000" fill-opacity="1"><g transform="translate(2.414523, 21.032174)"><g><path d="M 6.140625 -11.921875 C 6.929688 -11.921875 7.550781 -11.800781 8 -11.5625 C 8.457031 -11.320312 8.835938 -11.066406 9.140625 -10.796875 L 9.140625 -10.984375 C 9.140625 -11.179688 9.164062 -11.335938 9.21875 -11.453125 C 9.269531 -11.578125 9.382812 -11.640625 9.5625 -11.640625 C 9.84375 -11.640625 9.984375 -11.46875 9.984375 -11.125 L 9.984375 -8.921875 C 9.984375 -8.566406 9.84375 -8.390625 9.5625 -8.390625 C 9.40625 -8.390625 9.300781 -8.4375 9.25 -8.53125 C 9.195312 -8.632812 9.160156 -8.765625 9.140625 -8.921875 C 9.109375 -9.523438 8.804688 -10.03125 8.234375 -10.4375 C 7.660156 -10.851562 6.972656 -11.0625 6.171875 -11.0625 C 5.304688 -11.0625 4.585938 -10.835938 4.015625 -10.390625 C 3.441406 -9.941406 3.15625 -9.378906 3.15625 -8.703125 C 3.15625 -8.128906 3.328125 -7.679688 3.671875 -7.359375 C 4.023438 -7.046875 4.398438 -6.832031 4.796875 -6.71875 C 5.203125 -6.613281 5.71875 -6.503906 6.34375 -6.390625 C 7.15625 -6.253906 7.753906 -6.128906 8.140625 -6.015625 C 8.535156 -5.898438 8.910156 -5.722656 9.265625 -5.484375 C 10.046875 -4.941406 10.4375 -4.15625 10.4375 -3.125 C 10.4375 -2.46875 10.253906 -1.878906 9.890625 -1.359375 C 9.535156 -0.835938 9.035156 -0.425781 8.390625 -0.125 C 7.742188 0.175781 7.007812 0.328125 6.1875 0.328125 C 4.738281 0.328125 3.585938 -0.128906 2.734375 -1.046875 L 2.734375 -0.515625 C 2.734375 -0.347656 2.691406 -0.21875 2.609375 -0.125 C 2.535156 -0.0390625 2.429688 0 2.296875 0 C 2.023438 0 1.890625 -0.175781 1.890625 -0.53125 L 1.890625 -2.90625 C 1.890625 -3.25 2.023438 -3.421875 2.296875 -3.421875 C 2.554688 -3.421875 2.703125 -3.242188 2.734375 -2.890625 C 2.753906 -2.441406 2.925781 -2.035156 3.25 -1.671875 C 3.570312 -1.316406 3.992188 -1.035156 4.515625 -0.828125 C 5.035156 -0.617188 5.59375 -0.515625 6.1875 -0.515625 C 6.832031 -0.515625 7.414062 -0.628906 7.9375 -0.859375 C 8.457031 -1.085938 8.863281 -1.398438 9.15625 -1.796875 C 9.445312 -2.191406 9.59375 -2.632812 9.59375 -3.125 C 9.59375 -3.488281 9.515625 -3.820312 9.359375 -4.125 C 9.210938 -4.425781 9 -4.675781 8.71875 -4.875 C 8.476562 -5.050781 8.191406 -5.179688 7.859375 -5.265625 C 7.535156 -5.359375 7.207031 -5.429688 6.875 -5.484375 C 6.539062 -5.546875 6.320312 -5.585938 6.21875 -5.609375 C 5.4375 -5.753906 4.796875 -5.90625 4.296875 -6.0625 C 3.804688 -6.21875 3.351562 -6.507812 2.9375 -6.9375 C 2.53125 -7.363281 2.328125 -7.960938 2.328125 -8.734375 C 2.328125 -9.335938 2.492188 -9.878906 2.828125 -10.359375 C 3.171875 -10.835938 3.632812 -11.21875 4.21875 -11.5 C 4.800781 -11.78125 5.441406 -11.921875 6.140625 -11.921875 Z M 6.140625 -11.921875 "/></g></g></g><g fill="#000000" fill-opacity="1"><g transform="translate(14.638453, 21.032174)"><g><path d="M 3.40625 -7.359375 C 3.9375 -7.929688 4.445312 -8.332031 4.9375 -8.5625 C 5.425781 -8.800781 5.972656 -8.921875 6.578125 -8.921875 C 7.242188 -8.921875 7.820312 -8.785156 8.3125 -8.515625 C 8.800781 -8.253906 9.175781 -7.90625 9.4375 -7.46875 C 9.695312 -7.03125 9.828125 -6.566406 9.828125 -6.078125 L 9.828125 -0.828125 L 10.796875 -0.828125 C 11.148438 -0.828125 11.328125 -0.691406 11.328125 -0.421875 C 11.328125 -0.140625 11.148438 0 10.796875 0 L 8 0 C 7.65625 0 7.484375 -0.140625 7.484375 -0.421875 C 7.484375 -0.691406 7.65625 -0.828125 8 -0.828125 L 8.984375 -0.828125 L 8.984375 -5.984375 C 8.984375 -6.546875 8.769531 -7.03125 8.34375 -7.4375 C 7.925781 -7.851562 7.316406 -8.0625 6.515625 -8.0625 C 6.109375 -8.0625 5.757812 -8.007812 5.46875 -7.90625 C 5.175781 -7.800781 4.929688 -7.664062 4.734375 -7.5 C 4.535156 -7.332031 4.296875 -7.09375 4.015625 -6.78125 C 3.890625 -6.632812 3.6875 -6.421875 3.40625 -6.140625 L 3.40625 -0.828125 L 4.40625 -0.828125 C 4.738281 -0.828125 4.90625 -0.691406 4.90625 -0.421875 C 4.90625 -0.140625 4.738281 0 4.40625 0 L 1.59375 0 C 1.25 0 1.078125 -0.140625 1.078125 -0.421875 C 1.078125 -0.691406 1.25 -0.828125 1.59375 -0.828125 L 2.5625 -0.828125 L 2.5625 -11.640625 L 1.40625 -11.640625 C 1.0625 -11.640625 0.890625 -11.78125 0.890625 -12.0625 C 0.890625 -12.34375 1.0625 -12.484375 1.40625 -12.484375 L 3.40625 -12.484375 Z M 3.40625 -7.359375 "/></g></g></g><g fill="#000000" fill-opacity="1"><g transform="translate(26.862384, 21.032174)"><g><path d="M 6.15625 -8.90625 C 7 -8.90625 7.78125 -8.695312 8.5 -8.28125 C 9.21875 -7.863281 9.78125 -7.304688 10.1875 -6.609375 C 10.601562 -5.910156 10.8125 -5.140625 10.8125 -4.296875 C 10.8125 -3.453125 10.601562 -2.675781 10.1875 -1.96875 C 9.78125 -1.269531 9.21875 -0.710938 8.5 -0.296875 C 7.78125 0.117188 7 0.328125 6.15625 0.328125 C 5.3125 0.328125 4.53125 0.117188 3.8125 -0.296875 C 3.101562 -0.710938 2.535156 -1.269531 2.109375 -1.96875 C 1.691406 -2.675781 1.484375 -3.453125 1.484375 -4.296875 C 1.484375 -5.128906 1.691406 -5.894531 2.109375 -6.59375 C 2.535156 -7.300781 3.101562 -7.863281 3.8125 -8.28125 C 4.53125 -8.695312 5.3125 -8.90625 6.15625 -8.90625 Z M 2.328125 -4.296875 C 2.328125 -3.609375 2.5 -2.972656 2.84375 -2.390625 C 3.1875 -1.816406 3.648438 -1.359375 4.234375 -1.015625 C 4.816406 -0.679688 5.457031 -0.515625 6.15625 -0.515625 C 6.84375 -0.515625 7.476562 -0.679688 8.0625 -1.015625 C 8.644531 -1.359375 9.109375 -1.816406 9.453125 -2.390625 C 9.804688 -2.972656 9.984375 -3.609375 9.984375 -4.296875 C 9.984375 -4.960938 9.816406 -5.582031 9.484375 -6.15625 C 9.148438 -6.738281 8.691406 -7.203125 8.109375 -7.546875 C 7.523438 -7.890625 6.878906 -8.0625 6.171875 -8.0625 C 5.460938 -8.0625 4.8125 -7.890625 4.21875 -7.546875 C 3.632812 -7.210938 3.171875 -6.753906 2.828125 -6.171875 C 2.492188 -5.597656 2.328125 -4.972656 2.328125 -4.296875 Z M 2.328125 -4.296875 "/></g></g></g><g fill="#000000" fill-opacity="1"><g transform="translate(39.086314, 21.032174)"><g><path d="M 6.15625 -8.90625 C 7 -8.90625 7.78125 -8.695312 8.5 -8.28125 C 9.21875 -7.863281 9.78125 -7.304688 10.1875 -6.609375 C 10.601562 -5.910156 10.8125 -5.140625 10.8125 -4.296875 C 10.8125 -3.453125 10.601562 -2.675781 10.1875 -1.96875 C 9.78125 -1.269531 9.21875 -0.710938 8.5 -0.296875 C 7.78125 0.117188 7 0.328125 6.15625 0.328125 C 5.3125 0.328125 4.53125 0.117188 3.8125 -0.296875 C 3.101562 -0.710938 2.535156 -1.269531 2.109375 -1.96875 C 1.691406 -2.675781 1.484375 -3.453125 1.484375 -4.296875 C 1.484375 -5.128906 1.691406 -5.894531 2.109375 -6.59375 C 2.535156 -7.300781 3.101562 -7.863281 3.8125 -8.28125 C 4.53125 -8.695312 5.3125 -8.90625 6.15625 -8.90625 Z M 2.328125 -4.296875 C 2.328125 -3.609375 2.5 -2.972656 2.84375 -2.390625 C 3.1875 -1.816406 3.648438 -1.359375 4.234375 -1.015625 C 4.816406 -0.679688 5.457031 -0.515625 6.15625 -0.515625 C 6.84375 -0.515625 7.476562 -0.679688 8.0625 -1.015625 C 8.644531 -1.359375 9.109375 -1.816406 9.453125 -2.390625 C 9.804688 -2.972656 9.984375 -3.609375 9.984375 -4.296875 C 9.984375 -4.960938 9.816406 -5.582031 9.484375 -6.15625 C 9.148438 -6.738281 8.691406 -7.203125 8.109375 -7.546875 C 7.523438 -7.890625 6.878906 -8.0625 6.171875 -8.0625 C 5.460938 -8.0625 4.8125 -7.890625 4.21875 -7.546875 C 3.632812 -7.210938 3.171875 -6.753906 2.828125 -6.171875 C 2.492188 -5.597656 2.328125 -4.972656 2.328125 -4.296875 Z M 2.328125 -4.296875 "/></g></g></g><g fill="#000000" fill-opacity="1"><g transform="translate(51.310244, 21.032174)"><g><path d="M 4.625 -11.640625 C 4.894531 -11.640625 5.03125 -11.46875 5.03125 -11.125 L 5.03125 -8.625 L 9.609375 -8.625 C 9.960938 -8.625 10.140625 -8.476562 10.140625 -8.1875 C 10.140625 -7.90625 9.960938 -7.765625 9.609375 -7.765625 L 5.03125 -7.765625 L 5.03125 -2.15625 C 5.03125 -1.738281 5.210938 -1.359375 5.578125 -1.015625 C 5.953125 -0.679688 6.523438 -0.515625 7.296875 -0.515625 C 7.867188 -0.515625 8.476562 -0.59375 9.125 -0.75 C 9.78125 -0.90625 10.289062 -1.097656 10.65625 -1.328125 C 10.832031 -1.421875 10.945312 -1.46875 11 -1.46875 C 11.113281 -1.46875 11.207031 -1.421875 11.28125 -1.328125 C 11.363281 -1.242188 11.40625 -1.148438 11.40625 -1.046875 C 11.40625 -0.835938 11.175781 -0.628906 10.71875 -0.421875 C 10.257812 -0.210938 9.703125 -0.0351562 9.046875 0.109375 C 8.390625 0.253906 7.804688 0.328125 7.296875 0.328125 C 6.617188 0.328125 6.046875 0.207031 5.578125 -0.03125 C 5.117188 -0.269531 4.773438 -0.570312 4.546875 -0.9375 C 4.316406 -1.3125 4.203125 -1.710938 4.203125 -2.140625 L 4.203125 -7.765625 L 2.625 -7.765625 C 2.269531 -7.765625 2.09375 -7.90625 2.09375 -8.1875 C 2.09375 -8.476562 2.269531 -8.625 2.625 -8.625 L 4.203125 -8.625 L 4.203125 -11.125 C 4.203125 -11.46875 4.34375 -11.640625 4.625 -11.640625 Z M 4.625 -11.640625 "/></g></g></g><g fill="#000000" fill-opacity="1"><g transform="translate(63.534175, 21.032174)"><g/></g></g><g fill="#000000" fill-opacity="1"><g transform="translate(75.758105, 21.032174)"><g><path d="M 4.484375 -8.90625 C 5.328125 -8.90625 5.976562 -8.445312 6.4375 -7.53125 C 6.78125 -7.945312 7.132812 -8.28125 7.5 -8.53125 C 7.863281 -8.78125 8.269531 -8.90625 8.71875 -8.90625 C 9.125 -8.90625 9.488281 -8.796875 9.8125 -8.578125 C 10.144531 -8.359375 10.398438 -8.078125 10.578125 -7.734375 C 10.765625 -7.398438 10.859375 -7.054688 10.859375 -6.703125 L 10.859375 -0.828125 L 11.640625 -0.828125 C 11.960938 -0.828125 12.125 -0.691406 12.125 -0.421875 C 12.125 -0.140625 11.953125 0 11.609375 0 L 10.03125 0 L 10.03125 -6.640625 C 10.03125 -7.003906 9.910156 -7.332031 9.671875 -7.625 C 9.429688 -7.914062 9.117188 -8.0625 8.734375 -8.0625 C 8.367188 -8.0625 8.019531 -7.929688 7.6875 -7.671875 C 7.351562 -7.410156 7 -6.976562 6.625 -6.375 L 6.625 -0.828125 L 7.375 -0.828125 C 7.71875 -0.828125 7.890625 -0.691406 7.890625 -0.421875 C 7.890625 -0.140625 7.710938 0 7.359375 0 L 5.78125 0 L 5.78125 -6.578125 C 5.78125 -6.941406 5.65625 -7.28125 5.40625 -7.59375 C 5.164062 -7.90625 4.863281 -8.0625 4.5 -8.0625 C 4.1875 -8.0625 3.859375 -7.941406 3.515625 -7.703125 C 3.171875 -7.472656 2.78125 -7.03125 2.34375 -6.375 L 2.34375 -0.828125 L 3.125 -0.828125 C 3.445312 -0.828125 3.609375 -0.691406 3.609375 -0.421875 C 3.609375 -0.140625 3.4375 0 3.09375 0 L 0.78125 0 C 0.425781 0 0.25 -0.140625 0.25 -0.421875 C 0.25 -0.691406 0.414062 -0.828125 0.75 -0.828125 L 1.5 -0.828125 L 1.5 -7.765625 L 0.75 -7.765625 C 0.59375 -7.765625 0.46875 -7.800781 0.375 -7.875 C 0.289062 -7.945312 0.25 -8.050781 0.25 -8.1875 C 0.25 -8.476562 0.425781 -8.625 0.78125 -8.625 L 2.34375 -8.625 L 2.34375 -7.765625 C 2.707031 -8.171875 3.0625 -8.460938 3.40625 -8.640625 C 3.757812 -8.816406 4.117188 -8.90625 4.484375 -8.90625 Z M 4.484375 -8.90625 "/></g></g></g><g fill="#000000" fill-opacity="1"><g transform="translate(87.982035, 21.032174)"><g><path d="M 6.015625 -8.90625 C 6.910156 -8.90625 7.71875 -8.703125 8.4375 -8.296875 C 9.15625 -7.890625 9.707031 -7.335938 10.09375 -6.640625 C 10.476562 -5.953125 10.671875 -5.109375 10.671875 -4.109375 L 2.15625 -4.109375 C 2.3125 -3.023438 2.765625 -2.15625 3.515625 -1.5 C 4.265625 -0.84375 5.207031 -0.515625 6.34375 -0.515625 C 6.96875 -0.515625 7.609375 -0.613281 8.265625 -0.8125 C 8.929688 -1.019531 9.488281 -1.285156 9.9375 -1.609375 C 10.0625 -1.710938 10.1875 -1.765625 10.3125 -1.765625 C 10.414062 -1.765625 10.503906 -1.722656 10.578125 -1.640625 C 10.660156 -1.566406 10.703125 -1.472656 10.703125 -1.359375 C 10.703125 -1.148438 10.476562 -0.910156 10.03125 -0.640625 C 9.59375 -0.378906 9.03125 -0.15625 8.34375 0.03125 C 7.664062 0.226562 7 0.328125 6.34375 0.328125 C 5.414062 0.328125 4.566406 0.117188 3.796875 -0.296875 C 3.035156 -0.722656 2.429688 -1.304688 1.984375 -2.046875 C 1.546875 -2.785156 1.328125 -3.597656 1.328125 -4.484375 C 1.328125 -5.296875 1.53125 -6.035156 1.9375 -6.703125 C 2.351562 -7.378906 2.914062 -7.914062 3.625 -8.3125 C 4.34375 -8.707031 5.140625 -8.90625 6.015625 -8.90625 Z M 2.15625 -4.953125 L 9.859375 -4.953125 C 9.691406 -5.859375 9.257812 -6.601562 8.5625 -7.1875 C 7.863281 -7.769531 7.003906 -8.0625 5.984375 -8.0625 C 5.003906 -8.0625 4.164062 -7.773438 3.46875 -7.203125 C 2.78125 -6.640625 2.34375 -5.890625 2.15625 -4.953125 Z M 2.15625 -4.953125 "/></g></g></g><g fill="#000000" fill-opacity="1"><g transform="translate(100.205966, 21.032174)"><g/></g></g><g fill="#000000" fill-opacity="1"><g transform="translate(112.429896, 21.032174)"><g><path d="M 3.0625 -8.3125 C 3.75 -8.519531 4.316406 -8.671875 4.765625 -8.765625 C 5.210938 -8.859375 5.640625 -8.90625 6.046875 -8.90625 C 6.742188 -8.90625 7.347656 -8.785156 7.859375 -8.546875 C 8.367188 -8.304688 8.75 -7.992188 9 -7.609375 C 9.257812 -7.234375 9.390625 -6.835938 9.390625 -6.421875 L 9.390625 -0.828125 L 10.546875 -0.828125 C 10.898438 -0.828125 11.078125 -0.691406 11.078125 -0.421875 C 11.078125 -0.140625 10.898438 0 10.546875 0 L 8.5625 0 L 8.5625 -1.203125 C 7.351562 -0.179688 6.054688 0.328125 4.671875 0.328125 C 3.710938 0.328125 2.9375 0.0859375 2.34375 -0.390625 C 1.757812 -0.878906 1.46875 -1.515625 1.46875 -2.296875 C 1.46875 -2.878906 1.648438 -3.398438 2.015625 -3.859375 C 2.378906 -4.316406 2.890625 -4.671875 3.546875 -4.921875 C 4.210938 -5.179688 4.976562 -5.3125 5.84375 -5.3125 C 6.644531 -5.3125 7.550781 -5.210938 8.5625 -5.015625 L 8.5625 -6.421875 C 8.5625 -6.835938 8.34375 -7.210938 7.90625 -7.546875 C 7.46875 -7.890625 6.835938 -8.0625 6.015625 -8.0625 C 5.410156 -8.0625 4.519531 -7.878906 3.34375 -7.515625 C 3.289062 -7.503906 3.210938 -7.476562 3.109375 -7.4375 C 3.015625 -7.40625 2.9375 -7.390625 2.875 -7.390625 C 2.757812 -7.390625 2.664062 -7.429688 2.59375 -7.515625 C 2.519531 -7.597656 2.484375 -7.703125 2.484375 -7.828125 C 2.484375 -7.941406 2.523438 -8.035156 2.609375 -8.109375 C 2.703125 -8.191406 2.851562 -8.257812 3.0625 -8.3125 Z M 2.328125 -2.296875 C 2.328125 -1.765625 2.53125 -1.332031 2.9375 -1 C 3.351562 -0.675781 3.914062 -0.515625 4.625 -0.515625 C 5.375 -0.515625 6.050781 -0.660156 6.65625 -0.953125 C 7.269531 -1.242188 7.90625 -1.703125 8.5625 -2.328125 L 8.5625 -4.15625 C 7.84375 -4.375 6.90625 -4.484375 5.75 -4.484375 C 4.726562 -4.453125 3.898438 -4.234375 3.265625 -3.828125 C 2.640625 -3.429688 2.328125 -2.921875 2.328125 -2.296875 Z M 2.328125 -2.296875 "/></g></g></g><g fill="#000000" fill-opacity="1"><g transform="translate(124.653826, 21.032174)"><g><path d="M 6.640625 -8.921875 C 7.265625 -8.921875 7.816406 -8.785156 8.296875 -8.515625 C 8.785156 -8.253906 9.164062 -7.910156 9.4375 -7.484375 C 9.707031 -7.054688 9.84375 -6.613281 9.84375 -6.15625 L 9.84375 -0.828125 L 10.59375 -0.828125 C 10.9375 -0.828125 11.109375 -0.691406 11.109375 -0.421875 C 11.109375 -0.140625 10.929688 0 10.578125 0 L 8.25 0 C 7.914062 0 7.75 -0.140625 7.75 -0.421875 C 7.75 -0.691406 7.910156 -0.828125 8.234375 -0.828125 L 8.984375 -0.828125 L 8.984375 -5.984375 C 8.984375 -6.546875 8.773438 -7.03125 8.359375 -7.4375 C 7.953125 -7.851562 7.359375 -8.0625 6.578125 -8.0625 C 6.160156 -8.0625 5.804688 -8.007812 5.515625 -7.90625 C 5.234375 -7.800781 4.9375 -7.609375 4.625 -7.328125 C 4.320312 -7.054688 3.9375 -6.640625 3.46875 -6.078125 L 3.46875 -0.828125 L 4.4375 -0.828125 C 4.78125 -0.828125 4.953125 -0.691406 4.953125 -0.421875 C 4.953125 -0.140625 4.78125 0 4.4375 0 L 1.625 0 C 1.289062 0 1.125 -0.140625 1.125 -0.421875 C 1.125 -0.691406 1.289062 -0.828125 1.625 -0.828125 L 2.609375 -0.828125 L 2.609375 -7.765625 L 1.859375 -7.765625 C 1.523438 -7.765625 1.359375 -7.90625 1.359375 -8.1875 C 1.359375 -8.476562 1.53125 -8.625 1.875 -8.625 L 3.46875 -8.625 L 3.46875 -7.359375 C 4.007812 -7.929688 4.523438 -8.332031 5.015625 -8.5625 C 5.515625 -8.800781 6.054688 -8.921875 6.640625 -8.921875 Z M 6.640625 -8.921875 "/></g></g></g><g fill="#000000" fill-opacity="1"><g transform="translate(136.877757, 21.032174)"><g/></g></g><g fill="#000000" fill-opacity="1"><g transform="translate(149.101687, 21.032174)"><g><path d="M 6.015625 -8.90625 C 6.910156 -8.90625 7.71875 -8.703125 8.4375 -8.296875 C 9.15625 -7.890625 9.707031 -7.335938 10.09375 -6.640625 C 10.476562 -5.953125 10.671875 -5.109375 10.671875 -4.109375 L 2.15625 -4.109375 C 2.3125 -3.023438 2.765625 -2.15625 3.515625 -1.5 C 4.265625 -0.84375 5.207031 -0.515625 6.34375 -0.515625 C 6.96875 -0.515625 7.609375 -0.613281 8.265625 -0.8125 C 8.929688 -1.019531 9.488281 -1.285156 9.9375 -1.609375 C 10.0625 -1.710938 10.1875 -1.765625 10.3125 -1.765625 C 10.414062 -1.765625 10.503906 -1.722656 10.578125 -1.640625 C 10.660156 -1.566406 10.703125 -1.472656 10.703125 -1.359375 C 10.703125 -1.148438 10.476562 -0.910156 10.03125 -0.640625 C 9.59375 -0.378906 9.03125 -0.15625 8.34375 0.03125 C 7.664062 0.226562 7 0.328125 6.34375 0.328125 C 5.414062 0.328125 4.566406 0.117188 3.796875 -0.296875 C 3.035156 -0.722656 2.429688 -1.304688 1.984375 -2.046875 C 1.546875 -2.785156 1.328125 -3.597656 1.328125 -4.484375 C 1.328125 -5.296875 1.53125 -6.035156 1.9375 -6.703125 C 2.351562 -7.378906 2.914062 -7.914062 3.625 -8.3125 C 4.34375 -8.707031 5.140625 -8.90625 6.015625 -8.90625 Z M 2.15625 -4.953125 L 9.859375 -4.953125 C 9.691406 -5.859375 9.257812 -6.601562 8.5625 -7.1875 C 7.863281 -7.769531 7.003906 -8.0625 5.984375 -8.0625 C 5.003906 -8.0625 4.164062 -7.773438 3.46875 -7.203125 C 2.78125 -6.640625 2.34375 -5.890625 2.15625 -4.953125 Z M 2.15625 -4.953125 "/></g></g></g><g fill="#000000" fill-opacity="1"><g transform="translate(161.325617, 21.032174)"><g><path d="M 4.484375 -8.90625 C 5.328125 -8.90625 5.976562 -8.445312 6.4375 -7.53125 C 6.78125 -7.945312 7.132812 -8.28125 7.5 -8.53125 C 7.863281 -8.78125 8.269531 -8.90625 8.71875 -8.90625 C 9.125 -8.90625 9.488281 -8.796875 9.8125 -8.578125 C 10.144531 -8.359375 10.398438 -8.078125 10.578125 -7.734375 C 10.765625 -7.398438 10.859375 -7.054688 10.859375 -6.703125 L 10.859375 -0.828125 L 11.640625 -0.828125 C 11.960938 -0.828125 12.125 -0.691406 12.125 -0.421875 C 12.125 -0.140625 11.953125 0 11.609375 0 L 10.03125 0 L 10.03125 -6.640625 C 10.03125 -7.003906 9.910156 -7.332031 9.671875 -7.625 C 9.429688 -7.914062 9.117188 -8.0625 8.734375 -8.0625 C 8.367188 -8.0625 8.019531 -7.929688 7.6875 -7.671875 C 7.351562 -7.410156 7 -6.976562 6.625 -6.375 L 6.625 -0.828125 L 7.375 -0.828125 C 7.71875 -0.828125 7.890625 -0.691406 7.890625 -0.421875 C 7.890625 -0.140625 7.710938 0 7.359375 0 L 5.78125 0 L 5.78125 -6.578125 C 5.78125 -6.941406 5.65625 -7.28125 5.40625 -7.59375 C 5.164062 -7.90625 4.863281 -8.0625 4.5 -8.0625 C 4.1875 -8.0625 3.859375 -7.941406 3.515625 -7.703125 C 3.171875 -7.472656 2.78125 -7.03125 2.34375 -6.375 L 2.34375 -0.828125 L 3.125 -0.828125 C 3.445312 -0.828125 3.609375 -0.691406 3.609375 -0.421875 C 3.609375 -0.140625 3.4375 0 3.09375 0 L 0.78125 0 C 0.425781 0 0.25 -0.140625 0.25 -0.421875 C 0.25 -0.691406 0.414062 -0.828125 0.75 -0.828125 L 1.5 -0.828125 L 1.5 -7.765625 L 0.75 -7.765625 C 0.59375 -7.765625 0.46875 -7.800781 0.375 -7.875 C 0.289062 -7.945312 0.25 -8.050781 0.25 -8.1875 C 0.25 -8.476562 0.425781 -8.625 0.78125 -8.625 L 2.34375 -8.625 L 2.34375 -7.765625 C 2.707031 -8.171875 3.0625 -8.460938 3.40625 -8.640625 C 3.757812 -8.816406 4.117188 -8.90625 4.484375 -8.90625 Z M 4.484375 -8.90625 "/></g></g></g><g fill="#000000" fill-opacity="1"><g transform="translate(173.549548, 21.032174)"><g><path d="M 3.0625 -8.3125 C 3.75 -8.519531 4.316406 -8.671875 4.765625 -8.765625 C 5.210938 -8.859375 5.640625 -8.90625 6.046875 -8.90625 C 6.742188 -8.90625 7.347656 -8.785156 7.859375 -8.546875 C 8.367188 -8.304688 8.75 -7.992188 9 -7.609375 C 9.257812 -7.234375 9.390625 -6.835938 9.390625 -6.421875 L 9.390625 -0.828125 L 10.546875 -0.828125 C 10.898438 -0.828125 11.078125 -0.691406 11.078125 -0.421875 C 11.078125 -0.140625 10.898438 0 10.546875 0 L 8.5625 0 L 8.5625 -1.203125 C 7.351562 -0.179688 6.054688 0.328125 4.671875 0.328125 C 3.710938 0.328125 2.9375 0.0859375 2.34375 -0.390625 C 1.757812 -0.878906 1.46875 -1.515625 1.46875 -2.296875 C 1.46875 -2.878906 1.648438 -3.398438 2.015625 -3.859375 C 2.378906 -4.316406 2.890625 -4.671875 3.546875 -4.921875 C 4.210938 -5.179688 4.976562 -5.3125 5.84375 -5.3125 C 6.644531 -5.3125 7.550781 -5.210938 8.5625 -5.015625 L 8.5625 -6.421875 C 8.5625 -6.835938 8.34375 -7.210938 7.90625 -7.546875 C 7.46875 -7.890625 6.835938 -8.0625 6.015625 -8.0625 C 5.410156 -8.0625 4.519531 -7.878906 3.34375 -7.515625 C 3.289062 -7.503906 3.210938 -7.476562 3.109375 -7.4375 C 3.015625 -7.40625 2.9375 -7.390625 2.875 -7.390625 C 2.757812 -7.390625 2.664062 -7.429688 2.59375 -7.515625 C 2.519531 -7.597656 2.484375 -7.703125 2.484375 -7.828125 C 2.484375 -7.941406 2.523438 -8.035156 2.609375 -8.109375 C 2.703125 -8.191406 2.851562 -8.257812 3.0625 -8.3125 Z M 2.328125 -2.296875 C 2.328125 -1.765625 2.53125 -1.332031 2.9375 -1 C 3.351562 -0.675781 3.914062 -0.515625 4.625 -0.515625 C 5.375 -0.515625 6.050781 -0.660156 6.65625 -0.953125 C 7.269531 -1.242188 7.90625 -1.703125 8.5625 -2.328125 L 8.5625 -4.15625 C 7.84375 -4.375 6.90625 -4.484375 5.75 -4.484375 C 4.726562 -4.453125 3.898438 -4.234375 3.265625 -3.828125 C 2.640625 -3.429688 2.328125 -2.921875 2.328125 -2.296875 Z M 2.328125 -2.296875 "/></g></g></g><g fill="#000000" fill-opacity="1"><g transform="translate(185.773488, 21.032174)"><g><path d="M 6.5625 -10.734375 L 5.34375 -10.734375 L 5.34375 -12.890625 L 6.5625 -12.890625 Z M 6.59375 -0.828125 L 9.921875 -0.828125 C 10.273438 -0.828125 10.453125 -0.691406 10.453125 -0.421875 C 10.453125 -0.140625 10.273438 0 9.921875 0 L 2.4375 0 C 2.09375 0 1.921875 -0.140625 1.921875 -0.421875 C 1.921875 -0.691406 2.09375 -0.828125 2.4375 -0.828125 L 5.765625 -0.828125 L 5.765625 -7.765625 L 3.28125 -7.765625 C 2.9375 -7.765625 2.765625 -7.90625 2.765625 -8.1875 C 2.765625 -8.476562 2.9375 -8.625 3.28125 -8.625 L 6.59375 -8.625 Z M 6.59375 -0.828125 "/></g></g></g><g fill="#000000" fill-opacity="1"><g transform="translate(197.997408, 21.032174)"><g><path d="M 6.578125 -0.828125 L 9.90625 -0.828125 C 10.257812 -0.828125 10.4375 -0.691406 10.4375 -0.421875 C 10.4375 -0.140625 10.257812 0 9.90625 0 L 2.421875 0 C 2.085938 0 1.921875 -0.140625 1.921875 -0.421875 C 1.921875 -0.691406 2.085938 -0.828125 2.421875 -0.828125 L 5.75 -0.828125 L 5.75 -11.640625 L 3.296875 -11.640625 C 2.941406 -11.640625 2.765625 -11.78125 2.765625 -12.0625 C 2.765625 -12.34375 2.941406 -12.484375 3.296875 -12.484375 L 6.578125 -12.484375 Z M 6.578125 -0.828125 "/></g></g></g><g fill="#000000" fill-opacity="1"><g transform="translate(210.221328, 21.032174)"><g><path d="M 6.15625 -12.78125 C 6.394531 -12.78125 6.585938 -12.703125 6.734375 -12.546875 C 6.890625 -12.390625 6.96875 -12.207031 6.96875 -12 L 6.578125 -4.9375 C 6.566406 -4.726562 6.535156 -4.570312 6.484375 -4.46875 C 6.441406 -4.363281 6.332031 -4.3125 6.15625 -4.3125 C 5.882812 -4.3125 5.738281 -4.519531 5.71875 -4.9375 L 5.34375 -12 C 5.34375 -12.207031 5.414062 -12.390625 5.5625 -12.546875 C 5.707031 -12.703125 5.90625 -12.78125 6.15625 -12.78125 Z M 6.03125 -1.765625 L 6.296875 -1.765625 C 6.671875 -1.765625 6.945312 -1.648438 7.125 -1.421875 C 7.300781 -1.191406 7.390625 -0.960938 7.390625 -0.734375 C 7.390625 -0.515625 7.304688 -0.285156 7.140625 -0.046875 C 6.972656 0.191406 6.675781 0.3125 6.25 0.3125 L 5.96875 0.3125 C 5.65625 0.3125 5.40625 0.203125 5.21875 -0.015625 C 5.03125 -0.234375 4.9375 -0.472656 4.9375 -0.734375 C 4.9375 -0.992188 5.023438 -1.226562 5.203125 -1.4375 C 5.390625 -1.65625 5.664062 -1.765625 6.03125 -1.765625 Z M 6.03125 -1.765625 "/></g></g></g><g clip-path="url(#7be5c390f5)"><g clip-path="url(#3c373acef4)"><path fill="#8aceff" d="M 70.097656 41.425781 L 107.1875 41.425781 L 107.1875 96.914062 L 70.097656 96.914062 Z M 70.097656 41.425781 " fill-opacity="1" fill-rule="nonzero"/></g></g><g clip-path="url(#80c46c8c54)"><g clip-path="url(#5748e3ff03)"><path fill="#8aceff" d="M 63.515625 69.992188 L 100.492188 69.992188 L 100.492188 102.742188 L 63.515625 102.742188 Z M 63.515625 69.992188 " fill-opacity="1" fill-rule="nonzero"/></g></g></svg>